<?xml version="1.0" standalone="no"?>
<!DOCTYPE svg PUBLIC "-//W3C//DTD SVG 20010904//EN"
 "http://www.w3.org/TR/2001/REC-SVG-20010904/DTD/svg10.dtd">
<svg version="1.0" xmlns="http://www.w3.org/2000/svg"
 width="1000.000000pt" height="1000.000000pt" viewBox="0 0 1000.000000 1000.000000"
 preserveAspectRatio="xMidYMid meet">
<metadata>
Created by potrace 1.11, written by Peter Selinger 2001-2013
</metadata>
<g transform="translate(0.000000,1000.000000) scale(0.100000,-0.100000)"
fill="#000000" stroke="none">
<path d="M633 9346 c-141 -27 -264 -80 -334 -143 -56 -51 -69 -81 -69 -160 0
-165 105 -261 390 -356 58 -20 178 -59 268 -87 453 -144 779 -397 1153 -895
102 -135 166 -232 361 -545 623 -1000 1383 -2357 1467 -2618 38 -117 46 -101
-256 -503 -662 -881 -1319 -1623 -1808 -2044 -451 -388 -704 -524 -1305 -700
-222 -65 -390 -164 -455 -269 -26 -43 -30 -59 -30 -122 0 -64 3 -77 30 -116
39 -54 147 -111 260 -136 133 -28 699 -23 1165 11 201 15 444 31 540 37 254
14 754 12 986 -5 317 -22 638 -29 723 -16 161 25 319 99 372 172 32 45 33 135
2 194 -51 97 -148 163 -353 240 -420 158 -630 329 -670 544 -23 122 -7 198 75
361 148 296 505 821 951 1401 153 199 166 210 230 189 30 -10 60 -55 307 -448
298 -476 599 -966 695 -1132 120 -209 182 -381 182 -504 0 -165 -88 -236 -405
-327 -235 -67 -341 -117 -424 -200 -67 -69 -102 -181 -81 -260 17 -61 106
-147 201 -192 131 -63 180 -70 454 -63 132 3 373 15 535 27 597 42 959 39
2705 -22 484 -17 927 -29 985 -26 288 14 520 177 520 366 0 166 -143 262 -578
386 -253 72 -413 140 -593 251 -194 120 -391 295 -558 494 -141 169 -195 248
-438 640 -121 195 -382 616 -580 935 -788 1270 -1125 1840 -1218 2065 -24 57
-26 68 -16 102 30 100 1381 1643 1767 2018 260 252 507 430 804 579 203 101
365 163 610 233 127 36 211 67 305 113 200 97 254 156 255 278 0 101 -44 163
-152 212 -150 69 -403 71 -1048 11 -212 -19 -457 -40 -545 -46 -196 -12 -649
-13 -925 0 -718 32 -844 34 -929 18 -145 -29 -275 -108 -315 -192 -23 -49 -21
-140 5 -193 51 -106 219 -192 616 -317 138 -44 201 -75 260 -129 114 -105 137
-240 68 -410 -53 -129 -290 -487 -570 -857 -110 -146 -274 -364 -365 -485 -91
-121 -177 -226 -191 -234 -17 -9 -37 -12 -61 -7 -33 6 -46 20 -133 141 -305
427 -624 949 -807 1320 -110 223 -142 317 -135 398 10 113 83 177 337 292 205
94 258 122 307 168 64 59 83 104 83 203 0 71 -3 85 -28 125 -35 54 -91 94
-176 125 -121 44 -203 48 -728 35 -1062 -25 -1637 -12 -2713 60 -392 26 -883
34 -982 15z"/>
</g>
</svg>
